<svg width="18" height="17" viewBox="0 0 18 17" fill="none" xmlns="http://www.w3.org/2000/svg">
<path d="M16.4611 12.2304V14.4885C16.4619 14.6981 16.4189 14.9056 16.3348 15.0977C16.2506 15.2898 16.1272 15.4622 15.9724 15.6039C15.8176 15.7456 15.6349 15.8535 15.4359 15.9207C15.237 15.9878 15.0261 16.0128 14.8169 15.9939C12.4962 15.7422 10.2669 14.9508 8.30823 13.6831C6.48596 12.5274 4.941 10.9855 3.78305 9.16689C2.50844 7.20324 1.71523 4.96756 1.46767 2.64096C1.44882 2.43282 1.47361 2.22303 1.54045 2.02497C1.60729 1.82691 1.71472 1.6449 1.8559 1.49055C1.99709 1.33619 2.16892 1.21287 2.36048 1.12843C2.55203 1.04398 2.75911 1.00027 2.96852 1.00007H5.23111C5.59712 0.996478 5.95196 1.12583 6.22948 1.36403C6.507 1.60222 6.68827 1.93301 6.7395 2.29472C6.835 3.01736 7.0121 3.72691 7.26744 4.40981C7.36891 4.67922 7.39087 4.97202 7.33072 5.2535C7.27057 5.53498 7.13082 5.79336 6.92805 5.99801L5.97022 6.95394C7.04386 8.83837 8.60723 10.3986 10.4954 11.4702L11.4532 10.5142C11.6583 10.3118 11.9172 10.1724 12.1992 10.1123C12.4813 10.0523 12.7746 10.0742 13.0446 10.1755C13.7288 10.4303 14.4398 10.6071 15.1639 10.7024C15.5302 10.754 15.8648 10.9381 16.104 11.2199C16.3432 11.5016 16.4703 11.8612 16.4611 12.2304Z" stroke="#E4B65C" stroke-width="1.5" stroke-linecap="round" stroke-linejoin="round"/>
</svg>
