<svg width="15" height="15" viewBox="0 0 15 15" fill="none" xmlns="http://www.w3.org/2000/svg">
<g clip-path="url(#clip0)">
<path fill-rule="evenodd" clip-rule="evenodd" d="M4.375 13.125C4.375 12.4346 4.93464 11.875 5.625 11.875C6.31536 11.875 6.875 12.4346 6.875 13.125C6.875 13.8154 6.31536 14.375 5.625 14.375C4.93464 14.375 4.375 13.8154 4.375 13.125Z" fill="#E4B65C"/>
<path fill-rule="evenodd" clip-rule="evenodd" d="M11.25 13.125C11.25 12.4346 11.8096 11.875 12.5 11.875C13.1904 11.875 13.75 12.4346 13.75 13.125C13.75 13.8154 13.1904 14.375 12.5 14.375C11.8096 14.375 11.25 13.8154 11.25 13.125Z" fill="#E4B65C"/>
<path fill-rule="evenodd" clip-rule="evenodd" d="M0 0.625C0 0.279822 0.279822 0 0.625 0H3.125C3.42289 0 3.67938 0.210241 3.73785 0.502339L4.26277 3.125H14.375C14.5613 3.125 14.7378 3.20808 14.8566 3.3516C14.9753 3.49511 15.0238 3.68411 14.9889 3.86708L13.988 9.11551C13.9023 9.54713 13.6675 9.93485 13.3247 10.2108C12.9836 10.4854 12.5573 10.6319 12.1196 10.625H6.0554C5.61773 10.6319 5.19138 10.4854 4.8503 10.2108C4.50766 9.93496 4.2729 9.54745 4.18708 9.11604C4.18705 9.11586 4.18712 9.11622 4.18708 9.11604L3.14299 3.8995C3.13876 3.88225 3.13524 3.86471 3.13247 3.84692L2.6127 1.25H0.625C0.279822 1.25 0 0.970178 0 0.625ZM4.51296 4.375L5.41303 8.87199C5.4416 9.01586 5.51987 9.1451 5.63413 9.23708C5.74839 9.32906 5.89137 9.37793 6.03803 9.37512L6.05 9.375H12.125L12.137 9.37512C12.2836 9.37793 12.4266 9.32906 12.5409 9.23708C12.6546 9.14553 12.7327 9.01707 12.7616 8.874L13.6195 4.375H4.51296Z" fill="#E4B65C"/>
</g>
<defs>
<clipPath id="clip0">
<rect width="15" height="15" fill="white"/>
</clipPath>
</defs>
</svg>
