<svg width="18" height="17" viewBox="0 0 18 17" fill="none" xmlns="http://www.w3.org/2000/svg">
<path d="M16.3461 8.08335C16.349 9.18323 16.092 10.2682 15.5961 11.25C15.0081 12.4265 14.1042 13.416 12.9857 14.1077C11.8671 14.7995 10.578 15.1662 9.26278 15.1667C8.1629 15.1695 7.07788 14.9126 6.09612 14.4167L1.34613 16L2.92946 11.25C2.43357 10.2682 2.17659 9.18323 2.17946 8.08335C2.17997 6.76815 2.54664 5.47906 3.23839 4.36048C3.93015 3.24189 4.91967 2.33799 6.09612 1.75002C7.07788 1.25413 8.1629 0.997156 9.26278 1.00002H9.67945C11.4164 1.09585 13.057 1.82899 14.2871 3.05907C15.5171 4.28915 16.2503 5.92973 16.3461 7.66668V8.08335Z" stroke="#F86CB4" stroke-width="2" stroke-linecap="round" stroke-linejoin="round"/>
</svg>
