<svg width="91" height="13" viewBox="0 0 91 13" fill="none" xmlns="http://www.w3.org/2000/svg">
<path d="M7.58332 0.388916L9.28589 4.73017H14.7955L10.3381 7.41321L12.0407 11.7545L7.58332 9.07142L3.12596 11.7545L4.82852 7.41321L0.371154 4.73017H5.88076L7.58332 0.388916Z" fill="#FFD72A"/>
<path d="M26.5417 0.388916L28.2442 4.73017H33.7538L29.2965 7.41321L30.999 11.7545L26.5417 9.07142L22.0843 11.7545L23.7869 7.41321L19.3295 4.73017H24.8391L26.5417 0.388916Z" fill="#FFD72A"/>
<path d="M45.5 0.388916L47.2026 4.73017H52.7122L48.2548 7.41321L49.9574 11.7545L45.5 9.07142L41.0426 11.7545L42.7452 7.41321L38.2878 4.73017H43.7974L45.5 0.388916Z" fill="#FFD72A"/>
<path d="M64.4583 0.388916L66.1609 4.73017H71.6705L67.2131 7.41321L68.9157 11.7545L64.4583 9.07142L60.001 11.7545L61.7035 7.41321L57.2462 4.73017H62.7558L64.4583 0.388916Z" fill="#FFD72A"/>
<path d="M83.4167 0.388916L85.1192 4.73017H90.6288L86.1715 7.41321L87.874 11.7545L83.4167 9.07142L78.9593 11.7545L80.6619 7.41321L76.2045 4.73017H81.7141L83.4167 0.388916Z" fill="#C4C4C4"/>
</svg>
