<svg width="13" height="16" viewBox="0 0 13 16" fill="none" xmlns="http://www.w3.org/2000/svg">
<path d="M9.25 2.4H10.625C10.9897 2.4 11.3394 2.5475 11.5973 2.81005C11.8551 3.0726 12 3.4287 12 3.8V13.6C12 13.9713 11.8551 14.3274 11.5973 14.5899C11.3394 14.8525 10.9897 15 10.625 15H2.375C2.01033 15 1.66059 14.8525 1.40273 14.5899C1.14487 14.3274 1 13.9713 1 13.6V3.8C1 3.4287 1.14487 3.0726 1.40273 2.81005C1.66059 2.5475 2.01033 2.4 2.375 2.4H3.75M4.4375 1H8.5625C8.9422 1 9.25 1.3134 9.25 1.7V3.1C9.25 3.4866 8.9422 3.8 8.5625 3.8H4.4375C4.0578 3.8 3.75 3.4866 3.75 3.1V1.7C3.75 1.3134 4.0578 1 4.4375 1Z" stroke="#6CC164" stroke-width="2" stroke-linecap="round" stroke-linejoin="round"/>
</svg>
