<svg width="87" height="21" viewBox="0 0 87 21" fill="none" xmlns="http://www.w3.org/2000/svg">
<path d="M1.68121 20.7194C1.19618 20.7194 0.79502 20.5554 0.477741 20.231C0.156816 19.903 0 19.4984 0 19.0137V7.4495C0 6.96477 0.156816 6.55658 0.477741 6.23221C0.79502 5.9042 1.19618 5.74384 1.68121 5.74384C2.16625 5.74384 2.5674 5.90784 2.88468 6.23221C3.20196 6.56022 3.36242 6.96477 3.36242 7.4495V10.0809L3.16549 8.20392C3.36972 7.75564 3.63594 7.35838 3.96416 7.01215C4.29238 6.66591 4.66071 6.37799 5.06916 6.14474C5.48126 5.91149 5.91889 5.74019 6.38569 5.62721C6.85249 5.51423 7.31929 5.45956 7.78609 5.45956C8.34771 5.45956 8.81816 5.61992 9.20108 5.937C9.584 6.25408 9.77729 6.62947 9.77729 7.05588C9.77729 7.67181 9.61683 8.11645 9.29955 8.38615C8.98227 8.65585 8.63581 8.7907 8.26383 8.7907C7.91009 8.7907 7.58551 8.7251 7.29741 8.59389C7.00931 8.46269 6.67744 8.39708 6.30181 8.39708C5.9663 8.39708 5.62349 8.47726 5.28068 8.63398C4.93423 8.79434 4.61695 9.03853 4.32885 9.37747C4.04074 9.71277 3.80734 10.1283 3.62865 10.6239C3.44995 11.1196 3.36242 11.7027 3.36242 12.3733V19.0101C3.36242 19.4948 3.20196 19.903 2.88468 20.2274C2.5674 20.559 2.16625 20.7194 1.68121 20.7194Z" fill="#E4B65C"/>
<path d="M25.9476 13.2444C25.9476 14.7751 25.6048 16.1236 24.9264 17.2898C24.2445 18.4561 23.3291 19.3672 22.1803 20.0196C21.0316 20.672 19.7479 21 18.3292 21C16.9106 21 15.6269 20.672 14.4781 20.0196C13.3294 19.3672 12.414 18.4561 11.732 17.2898C11.05 16.1236 10.7109 14.7751 10.7109 13.2444C10.7109 11.7136 11.05 10.3652 11.732 9.19889C12.414 8.03263 13.3294 7.11784 14.4781 6.45453C15.6269 5.79122 16.9106 5.45956 18.3292 5.45956C19.7479 5.45956 21.0316 5.79122 22.1803 6.45453C23.3291 7.11784 24.2445 8.03263 24.9264 9.19889C25.6048 10.3652 25.9476 11.7136 25.9476 13.2444ZM22.5851 13.2444C22.5851 12.2931 22.3919 11.4658 22.0089 10.7661C21.626 10.0663 21.1118 9.51961 20.4663 9.12964C19.8208 8.73967 19.106 8.54287 18.3219 8.54287C17.5379 8.54287 16.8231 8.73967 16.1776 9.12964C15.5321 9.51961 15.0179 10.0663 14.6349 10.7661C14.252 11.4658 14.0587 12.2931 14.0587 13.2444C14.0587 14.1774 14.2484 14.9938 14.6349 15.6935C15.0179 16.3933 15.5321 16.94 16.1776 17.3299C16.8231 17.7199 17.5379 17.9167 18.3219 17.9167C19.106 17.9167 19.8208 17.7199 20.4663 17.3299C21.1118 16.94 21.626 16.3933 22.0089 15.6935C22.3919 14.9938 22.5851 14.1774 22.5851 13.2444Z" fill="#E4B65C"/>
<path d="M30.7104 20.7194C30.2254 20.7194 29.8242 20.5554 29.5069 20.231C29.1896 19.903 29.0292 19.4984 29.0292 19.0137V1.7093C29.0292 1.22457 29.186 0.816383 29.5069 0.492017C29.8206 0.164006 30.2217 0 30.7104 0C31.1954 0 31.5966 0.164006 31.9139 0.488372C32.2311 0.816383 32.3916 1.22093 32.3916 1.70566V19.0101C32.3916 19.4948 32.2311 19.903 31.9139 20.2274C31.5966 20.559 31.1954 20.7194 30.7104 20.7194ZM39.6197 5.74019C40.05 5.74019 40.422 5.91878 40.7393 6.2723C41.0566 6.62582 41.217 6.97206 41.217 7.30736C41.217 7.75564 40.9946 8.17477 40.546 8.56838L32.1108 16.324L31.9722 12.4608L38.3871 6.2723C38.7408 5.91878 39.1529 5.74019 39.6197 5.74019ZM40.0391 20.6939C39.5541 20.6939 39.142 20.508 38.8065 20.1326L33.6242 14.6439L36.1734 12.2931L41.217 17.7818C41.5708 18.1572 41.7495 18.5764 41.7495 19.0429C41.7495 19.5276 41.5562 19.9249 41.1733 20.2346C40.7904 20.5408 40.4147 20.6939 40.0391 20.6939Z" fill="#E4B65C"/>
<path d="M56.709 5.45956C57.194 5.45956 57.5952 5.61992 57.9125 5.937C58.2298 6.25408 58.3902 6.66592 58.3902 7.16887V19.0137C58.3902 19.4984 58.2298 19.9066 57.9125 20.231C57.5952 20.559 57.194 20.7194 56.709 20.7194C56.224 20.7194 55.8228 20.5554 55.5055 20.231C55.1882 19.903 55.0278 19.4984 55.0278 19.0137V17.6397L55.6441 17.8912C55.6441 18.1354 55.5128 18.4269 55.2502 18.7732C54.9877 19.1194 54.6339 19.4584 54.1854 19.7937C53.7368 20.129 53.208 20.4132 52.6026 20.6465C51.9936 20.8797 51.3371 20.9964 50.626 20.9964C49.3387 20.9964 48.168 20.6647 47.125 20.0014C46.0783 19.3381 45.2505 18.4233 44.6451 17.257C44.0361 16.0908 43.7334 14.7496 43.7334 13.2407C43.7334 11.71 44.0361 10.3615 44.6451 9.19525C45.2505 8.02898 46.071 7.1142 47.0958 6.45089C48.1242 5.78757 49.2621 5.45592 50.5129 5.45592C51.3153 5.45592 52.0556 5.57619 52.7266 5.82038C53.3976 6.06456 53.9811 6.37071 54.4771 6.7461C54.9731 7.12149 55.356 7.49688 55.6259 7.87956C55.8957 8.26224 56.0307 8.58296 56.0307 8.84537L55.0205 9.20982V7.16522C55.0205 6.68049 55.1773 6.2723 55.4982 5.94794C55.8228 5.62357 56.224 5.45956 56.709 5.45956ZM51.0527 17.9203C51.8732 17.9203 52.5953 17.7162 53.2116 17.3044C53.828 16.8926 54.3094 16.335 54.6558 15.6243C55.0023 14.9136 55.1737 14.1227 55.1737 13.2444C55.1737 12.3478 55.0023 11.546 54.6558 10.8353C54.3094 10.1246 53.828 9.56699 53.2116 9.15516C52.5953 8.74332 51.8769 8.53922 51.0527 8.53922C50.2504 8.53922 49.5392 8.74332 48.9229 9.15516C48.3066 9.56699 47.8252 10.1246 47.4787 10.8353C47.1323 11.546 46.9609 12.3478 46.9609 13.2444C46.9609 14.1227 47.1323 14.9136 47.4787 15.6243C47.8252 16.335 48.3066 16.8926 48.9229 17.3044C49.5392 17.7162 50.2467 17.9203 51.0527 17.9203Z" fill="#E4B65C"/>
<path d="M63.7147 20.7194C63.2296 20.7194 62.8285 20.5554 62.5112 20.231C62.1939 19.903 62.0334 19.4984 62.0334 19.0137V7.4495C62.0334 6.96477 62.1903 6.55658 62.5112 6.23221C62.8285 5.9042 63.2296 5.74384 63.7147 5.74384C64.1997 5.74384 64.6009 5.90784 64.9181 6.23221C65.2354 6.56022 65.3959 6.96477 65.3959 7.4495V10.0809L65.1989 8.20392C65.4032 7.75564 65.6694 7.35838 65.9976 7.01215C66.3258 6.66591 66.6942 6.37799 67.1026 6.14474C67.5147 5.91149 67.9523 5.74019 68.4191 5.62721C68.8859 5.51423 69.3527 5.45956 69.8195 5.45956C70.3812 5.45956 70.8516 5.61992 71.2345 5.937C71.6175 6.25408 71.8107 6.62947 71.8107 7.05588C71.8107 7.67181 71.6503 8.11645 71.333 8.38615C71.0157 8.65585 70.6693 8.7907 70.2973 8.7907C69.9435 8.7907 69.619 8.7251 69.3309 8.59389C69.0428 8.46269 68.7109 8.39708 68.3353 8.39708C67.9997 8.39708 67.6569 8.47726 67.3141 8.63398C66.9677 8.79434 66.6504 9.03853 66.3623 9.37747C66.0742 9.71277 65.8408 10.1283 65.6621 10.6239C65.4834 11.1196 65.3959 11.7027 65.3959 12.3733V19.0101C65.3959 19.4948 65.2354 19.903 64.9181 20.2274C64.6009 20.559 64.1997 20.7194 63.7147 20.7194Z" fill="#E4B65C"/>
<path d="M85.3188 5.74019C85.8038 5.74019 86.205 5.9042 86.5223 6.22857C86.8395 6.55658 87 6.96112 87 7.44585V14.5601C87 16.5391 86.4493 18.1062 85.348 19.2652C84.2466 20.4242 82.6566 21 80.5851 21C78.5101 21 76.9273 20.4205 75.8369 19.2652C74.7428 18.1062 74.1994 16.5391 74.1994 14.5601V7.4495C74.1994 6.96477 74.3563 6.55658 74.6772 6.23221C74.9945 5.9042 75.3956 5.74384 75.8807 5.74384C76.3657 5.74384 76.7668 5.90785 77.0841 6.23221C77.4014 6.56022 77.5619 6.96477 77.5619 7.4495V14.5637C77.5619 15.7008 77.8135 16.5463 78.3168 17.0967C78.82 17.647 79.5786 17.924 80.5851 17.924C81.6136 17.924 82.3794 17.6506 82.8827 17.0967C83.3859 16.5463 83.6376 15.7008 83.6376 14.5637V7.4495C83.6376 6.96477 83.7944 6.55658 84.1153 6.23221C84.4289 5.9042 84.8337 5.74019 85.3188 5.74019Z" fill="#E4B65C"/>
</svg>
