<svg width="24" height="24" viewBox="0 0 24 24" fill="none" xmlns="http://www.w3.org/2000/svg">
<path d="M17.0044 2.69615H19.5512C20.0911 2.6866 20.6157 2.8756 21.0254 3.22729C21.4351 3.57897 21.7014 4.06884 21.7738 4.60391V11.2811C21.7014 11.8162 21.4351 12.306 21.0254 12.6577C20.6157 13.0094 20.0911 13.1984 19.5512 13.1889H17.0044M10.3272 15.0966V18.9122C10.3272 19.6711 10.6287 20.399 11.1653 20.9357C11.702 21.4723 12.4299 21.7738 13.1888 21.7738L17.0044 13.1889V2.69615H6.24455C5.78447 2.69094 5.338 2.8522 4.98743 3.15019C4.63685 3.44818 4.40577 3.86283 4.33679 4.31775L3.02043 12.9027C2.97893 13.1761 2.99737 13.4553 3.07448 13.7209C3.15158 13.9865 3.28551 14.2321 3.46698 14.4408C3.64845 14.6495 3.87312 14.8162 4.12543 14.9295C4.37774 15.0427 4.65166 15.0998 4.92819 15.0966H10.3272Z" stroke="white" stroke-width="2" stroke-linecap="round" stroke-linejoin="round"/>
</svg>
