<svg width="27" height="27" viewBox="0 0 27 27" fill="none" xmlns="http://www.w3.org/2000/svg">
<path d="M7.25 26H3.5C2.83696 26 2.20107 25.7366 1.73223 25.2678C1.26339 24.7989 1 24.163 1 23.5V14.75C1 14.087 1.26339 13.4511 1.73223 12.9822C2.20107 12.5134 2.83696 12.25 3.5 12.25H7.25M16 9.75V4.75C16 3.75544 15.6049 2.80161 14.9017 2.09835C14.1984 1.39509 13.2446 1 12.25 1L7.25 12.25V26H21.35C21.9529 26.0068 22.538 25.7955 22.9974 25.405C23.4568 25.0145 23.7596 24.4711 23.85 23.875L25.575 12.625C25.6294 12.2667 25.6052 11.9009 25.5042 11.5528C25.4031 11.2048 25.2276 10.8829 24.9898 10.6094C24.752 10.3359 24.4576 10.1174 24.127 9.96902C23.7963 9.82063 23.4374 9.7459 23.075 9.75H16Z" stroke="white" stroke-width="2" stroke-linecap="round" stroke-linejoin="round"/>
</svg>
